<svg width="16" height="15" viewBox="0 0 16 15" fill="none" xmlns="http://www.w3.org/2000/svg">
<path d="M1 7.88218V4.89394C1 4.33389 1 4.05387 1.10899 3.83995C1.20487 3.65179 1.35785 3.49881 1.54601 3.40294C1.75992 3.29395 2.03995 3.29395 2.6 3.29395H3.29412" stroke="#8B8B8B" stroke-width="2"/>
<path d="M14.7646 7.88218V4.89394C14.7646 4.33389 14.7646 4.05387 14.6557 3.83995C14.5598 3.65179 14.4068 3.49881 14.2186 3.40294C14.0047 3.29395 13.7247 3.29395 13.1646 3.29395H12.4705" stroke="#8B8B8B" stroke-width="2"/>
<path d="M2.5293 1.76465L4.82341 3.29406L2.5293 4.82347V1.76465Z" fill="#8B8B8B"/>
<path d="M13.2354 1.76465L10.9412 3.29406L13.2354 4.82347V1.76465Z" fill="#8B8B8B"/>
<path d="M10.1763 10.941C10.1763 10.4475 10.1763 10.2007 10.2615 10.0077C10.3622 9.77969 10.5443 9.5975 10.7723 9.49683C10.9653 9.41162 11.2121 9.41162 11.7057 9.41162L12.4704 10.1763H13.1645C13.7246 10.1763 14.0046 10.1763 14.2185 10.2853C14.4067 10.3812 14.5596 10.5342 14.6555 10.7223C14.7645 10.9362 14.7645 11.2163 14.7645 11.7763V12.3999C14.7645 12.9599 14.7645 13.2399 14.6555 13.4538C14.5596 13.642 14.4067 13.795 14.2185 13.8909C14.0046 13.9999 13.7246 13.9999 13.1645 13.9999H11.7763C11.2162 13.9999 10.9362 13.9999 10.7223 13.8909C10.5341 13.795 10.3811 13.642 10.2853 13.4538C10.1763 13.2399 10.1763 12.9599 10.1763 12.3999V10.941Z" fill="#8B8B8B" stroke="#8B8B8B" stroke-width="2" stroke-linejoin="round"/>
<path d="M1 10.941C1 10.4475 1 10.2007 1.08521 10.0077C1.18588 9.77969 1.36807 9.5975 1.59608 9.49683C1.78905 9.41162 2.03584 9.41162 2.52941 9.41162L3.29412 10.1763H3.98824C4.54829 10.1763 4.82831 10.1763 5.04223 10.2853C5.23039 10.3812 5.38337 10.5342 5.47924 10.7223C5.58824 10.9362 5.58824 11.2163 5.58824 11.7763V12.3999C5.58824 12.9599 5.58824 13.2399 5.47924 13.4538C5.38337 13.642 5.23039 13.795 5.04223 13.8909C4.82831 13.9999 4.54829 13.9999 3.98824 13.9999H2.6C2.03995 13.9999 1.75992 13.9999 1.54601 13.8909C1.35785 13.795 1.20487 13.642 1.10899 13.4538C1 13.2399 1 12.9599 1 12.3999V10.941Z" fill="#8B8B8B" stroke="#8B8B8B" stroke-width="2" stroke-linejoin="round"/>
<path d="M5.58838 2.52941C5.58838 2.03584 5.58838 1.78905 5.67358 1.59608C5.77426 1.36807 5.95645 1.18588 6.18446 1.08521C6.37743 1 6.62422 1 7.11779 1L7.8825 1.76471H8.57661C9.13667 1.76471 9.41669 1.76471 9.6306 1.8737C9.81877 1.96957 9.97175 2.12255 10.0676 2.31072C10.1766 2.52463 10.1766 2.80465 10.1766 3.36471V3.98824C10.1766 4.54829 10.1766 4.82831 10.0676 5.04223C9.97175 5.23039 9.81877 5.38337 9.6306 5.47924C9.41669 5.58824 9.13667 5.58824 8.57661 5.58824H7.18838C6.62833 5.58824 6.3483 5.58824 6.13439 5.47924C5.94623 5.38337 5.79325 5.23039 5.69737 5.04223C5.58838 4.82831 5.58838 4.54829 5.58838 3.98824V2.52941Z" fill="#8B8B8B" stroke="#8B8B8B" stroke-width="2" stroke-linejoin="round"/>
</svg>
