<svg width="16" height="15" viewBox="0 0 16 15" fill="none" xmlns="http://www.w3.org/2000/svg">
<path d="M1 7.88218V4.89394C1 4.33389 1 4.05387 1.10899 3.83995C1.20487 3.65179 1.35785 3.49881 1.54601 3.40294C1.75992 3.29395 2.03995 3.29395 2.6 3.29395H3.29412" stroke="#8B8B8B" stroke-width="2"/>
<path d="M14.7647 7.88218V4.89394C14.7647 4.33389 14.7647 4.05387 14.6557 3.83995C14.5598 3.65179 14.4069 3.49881 14.2187 3.40294C14.0048 3.29395 13.7248 3.29395 13.1647 3.29395H12.4706" stroke="#8B8B8B" stroke-width="2"/>
<path d="M2.52942 1.76465L4.82354 3.29406L2.52942 4.82347V1.76465Z" fill="#8B8B8B"/>
<path d="M13.2353 1.76465L10.9412 3.29406L13.2353 4.82347V1.76465Z" fill="#8B8B8B"/>
<path d="M10.1765 10.941C10.1765 10.4475 10.1765 10.2007 10.2617 10.0077C10.3623 9.77969 10.5445 9.5975 10.7725 9.49683C10.9655 9.41162 11.2123 9.41162 11.7059 9.41162L12.4706 10.1763H13.1647C13.7248 10.1763 14.0048 10.1763 14.2187 10.2853C14.4069 10.3812 14.5598 10.5342 14.6557 10.7223C14.7647 10.9362 14.7647 11.2163 14.7647 11.7763V12.3999C14.7647 12.9599 14.7647 13.2399 14.6557 13.4538C14.5598 13.642 14.4069 13.795 14.2187 13.8909C14.0048 13.9999 13.7248 13.9999 13.1647 13.9999H11.7765C11.2164 13.9999 10.9364 13.9999 10.7225 13.8909C10.5343 13.795 10.3813 13.642 10.2855 13.4538C10.1765 13.2399 10.1765 12.9599 10.1765 12.3999V10.941Z" fill="#8B8B8B" stroke="#8B8B8B" stroke-width="2" stroke-linejoin="round"/>
<path d="M1 10.941C1 10.4475 1 10.2007 1.08521 10.0077C1.18588 9.77969 1.36807 9.5975 1.59608 9.49683C1.78905 9.41162 2.03584 9.41162 2.52941 9.41162L3.29412 10.1763H3.98824C4.54829 10.1763 4.82831 10.1763 5.04223 10.2853C5.23039 10.3812 5.38337 10.5342 5.47924 10.7223C5.58824 10.9362 5.58824 11.2163 5.58824 11.7763V12.3999C5.58824 12.9599 5.58824 13.2399 5.47924 13.4538C5.38337 13.642 5.23039 13.795 5.04223 13.8909C4.82831 13.9999 4.54829 13.9999 3.98824 13.9999H2.6C2.03995 13.9999 1.75992 13.9999 1.54601 13.8909C1.35785 13.795 1.20487 13.642 1.10899 13.4538C1 13.2399 1 12.9599 1 12.3999V10.941Z" fill="#8B8B8B" stroke="#8B8B8B" stroke-width="2" stroke-linejoin="round"/>
<path d="M5.58824 2.52941C5.58824 2.03584 5.58824 1.78905 5.67345 1.59608C5.77412 1.36807 5.95631 1.18588 6.18432 1.08521C6.37729 1 6.62408 1 7.11765 1L7.88236 1.76471H8.57648C9.13653 1.76471 9.41656 1.76471 9.63047 1.8737C9.81863 1.96957 9.97161 2.12255 10.0675 2.31072C10.1765 2.52463 10.1765 2.80465 10.1765 3.36471V3.98824C10.1765 4.54829 10.1765 4.82831 10.0675 5.04223C9.97161 5.23039 9.81863 5.38337 9.63047 5.47924C9.41656 5.58824 9.13653 5.58824 8.57648 5.58824H7.18824C6.62819 5.58824 6.34816 5.58824 6.13425 5.47924C5.94609 5.38337 5.79311 5.23039 5.69724 5.04223C5.58824 4.82831 5.58824 4.54829 5.58824 3.98824V2.52941Z" fill="#8B8B8B" stroke="#8B8B8B" stroke-width="2" stroke-linejoin="round"/>
</svg>
