<svg width="12" height="12" viewBox="0 0 12 12" fill="none" xmlns="http://www.w3.org/2000/svg">
<path d="M1.99316 6.76602C1.99316 6.60566 1.99316 6.52548 1.99776 6.45779C2.06553 5.46003 2.85987 4.66569 3.85763 4.59792C3.92532 4.59332 4.0055 4.59332 4.16586 4.59332H7.22342C7.38378 4.59332 7.46396 4.59332 7.53165 4.59792C8.52941 4.66569 9.32375 5.46003 9.39152 6.45779C9.39612 6.52548 9.39612 6.60566 9.39612 6.76602V6.76602C9.39612 7.00656 9.39612 7.12683 9.38922 7.22836C9.28757 8.725 8.09605 9.91651 6.59941 10.0182C6.49788 10.0251 6.37761 10.0251 6.13708 10.0251H5.25221C5.01167 10.0251 4.8914 10.0251 4.78987 10.0182C3.29323 9.91651 2.10171 8.725 2.00006 7.22836C1.99316 7.12683 1.99316 7.00656 1.99316 6.76602V6.76602Z" stroke="#AFAFAF"/>
<path d="M7.54547 4.14067V3.72818C7.54547 2.70604 6.71687 1.87744 5.69473 1.87744V1.87744C4.6726 1.87744 3.84399 2.70604 3.84399 3.72818V4.14067" stroke="#AFAFAF" stroke-linecap="round"/>
</svg>
