<svg width="64" height="54" viewBox="0 0 64 54" fill="none" xmlns="http://www.w3.org/2000/svg">
<mask id="path-1-inside-1_264_594" fill="white">
<path d="M0 38L16 53.5L63.5 11.5L47 0L17.5 40L5.5 31L0 38Z"/>
</mask>
<path d="M16 53.5L-11.8318 82.2296L14.76 107.99L42.4961 83.4659L16 53.5ZM0 38L-31.4527 13.2871L-53.7303 41.6404L-27.8318 66.7296L0 38ZM5.5 31L29.5 -1L-1.78898 -24.4667L-25.9527 6.28714L5.5 31ZM17.5 40L-6.5 72L25.7586 96.1939L49.6921 63.7417L17.5 40ZM47 0L69.8717 -32.8159L37.9225 -55.0835L14.8079 -23.7417L47 0ZM63.5 11.5L89.9961 41.4659L128.104 7.77035L86.3717 -21.3159L63.5 11.5ZM43.8318 24.7704L27.8318 9.27039L-27.8318 66.7296L-11.8318 82.2296L43.8318 24.7704ZM31.4527 62.7129L36.9527 55.7129L-25.9527 6.28714L-31.4527 13.2871L31.4527 62.7129ZM-18.5 63L-6.5 72L41.5 8L29.5 -1L-18.5 63ZM49.6921 63.7417L79.1921 23.7417L14.8079 -23.7417L-14.6921 16.2583L49.6921 63.7417ZM24.1283 32.8159L40.6283 44.3159L86.3717 -21.3159L69.8717 -32.8159L24.1283 32.8159ZM37.0039 -18.4659L-10.4961 23.5341L42.4961 83.4659L89.9961 41.4659L37.0039 -18.4659Z" fill="#89FF87" mask="url(#path-1-inside-1_264_594)"/>
</svg>
