<svg width="24" height="20" viewBox="0 0 24 20" fill="none" xmlns="http://www.w3.org/2000/svg">
<path fill-rule="evenodd" clip-rule="evenodd" d="M7.11116 0C7.66345 0 8.11116 0.373098 8.11116 0.833329V1.04232C9.04312 1.01859 10.1094 1.01859 11.3344 1.01861H12.6656C13.8907 1.01859 14.9569 1.01859 15.8888 1.04232V0.833329C15.8888 0.373098 16.3365 0 16.8888 0C17.4411 0 17.8888 0.373098 17.8888 0.833329V1.15777C19.0136 1.27584 19.9624 1.50108 20.8039 1.95507C21.6332 2.40241 22.3395 2.99094 22.8763 3.68198C23.48 4.45929 23.7467 5.34629 23.8747 6.42111C24 7.47307 24 8.79087 24 10.4639V10.5547C24 12.2277 24 13.5455 23.8747 14.5975C23.7467 15.6722 23.48 16.5594 22.8763 17.3366C22.3395 18.0277 21.6332 18.6162 20.8039 19.0636C19.8712 19.5667 18.8068 19.7889 17.5169 19.8956C16.2547 20 14.6733 20 12.6657 20H11.3343C9.32672 20 7.74539 20 6.48304 19.8956C5.19325 19.7889 4.12884 19.5667 3.19607 19.0636C2.36681 18.6162 1.66057 18.0277 1.12377 17.3366C0.519947 16.5594 0.253333 15.6722 0.125293 14.5975C-1.72555e-05 13.5455 -9.17252e-06 12.2277 1.60815e-07 10.5547V10.4638C-9.17252e-06 8.79085 -1.72555e-05 7.47307 0.125293 6.42111C0.253333 5.34629 0.519947 4.45929 1.12377 3.68198C1.66057 2.99094 2.36681 2.40241 3.19607 1.95507C4.03765 1.50108 4.98641 1.27584 6.11116 1.15777V0.833329C6.11116 0.373098 6.55888 0 7.11116 0ZM15.8888 2.70967V2.87035C15.8888 3.33059 16.3365 3.70368 16.8888 3.70368C17.4411 3.70368 17.8888 3.33059 17.8888 2.87035V2.84026C18.7031 2.94337 19.2611 3.10818 19.7171 3.35417C20.3095 3.67369 20.8139 4.09408 21.1973 4.58767C21.4723 4.94168 21.6628 5.3695 21.7876 5.97501C21.3892 5.93885 20.9043 5.89909 20.3331 5.85942C18.4721 5.73019 15.6945 5.60191 12 5.60191C8.30552 5.60191 5.52781 5.73019 3.66695 5.85942C3.09568 5.89909 2.61084 5.93885 2.21243 5.97501C2.33723 5.3695 2.52769 4.94168 2.80269 4.58767C3.18612 4.09408 3.69059 3.67369 4.28291 3.35417C4.73889 3.10818 5.29693 2.94337 6.11116 2.84026V2.87035C6.11116 3.33059 6.55888 3.70368 7.11116 3.70368C7.66345 3.70368 8.11116 3.33059 8.11116 2.87035V2.70967C9.01281 2.68564 10.0836 2.68526 11.3889 2.68526H12.6111C13.9164 2.68526 14.9872 2.68564 15.8888 2.70967ZM21.9663 7.66929C21.5304 7.62621 20.9305 7.57335 20.1669 7.52031C18.3612 7.39491 15.6388 7.26857 12 7.26857C8.36115 7.26857 5.63885 7.39491 3.83304 7.52031C3.06941 7.57335 2.46963 7.62621 2.03371 7.66929C2.00051 8.44294 2 9.36871 2 10.5093C2 12.2377 2.00115 13.4728 2.11551 14.4328C2.22828 15.3795 2.44328 15.9682 2.80269 16.4309C3.18612 16.9245 3.69059 17.3449 4.28291 17.6645C4.83811 17.9639 5.54459 18.1431 6.68061 18.237C7.83265 18.3323 9.31481 18.3333 11.3889 18.3333H12.6111C14.6852 18.3333 16.1673 18.3323 17.3193 18.237C18.4555 18.1431 19.1619 17.9639 19.7171 17.6645C20.3095 17.3449 20.8139 16.9245 21.1973 16.4309C21.5567 15.9682 21.7717 15.3795 21.8845 14.4328C21.9988 13.4728 22 12.2377 22 10.5093C22 9.36871 21.9995 8.44294 21.9663 7.66929Z" fill="white"/>
</svg>
